<svg width="32" height="32" viewBox="0 0 32 32" fill="none" xmlns="http://www.w3.org/2000/svg">
<path d="M26.6667 18.6666C28.1394 18.6666 29.3333 17.4727 29.3333 15.9999C29.3333 14.5272 28.1394 13.3333 26.6667 13.3333C25.1939 13.3333 24 14.5272 24 15.9999C24 17.4727 25.1939 18.6666 26.6667 18.6666Z" stroke="#FBFBFB" stroke-width="1.25" stroke-linecap="round" stroke-linejoin="round"/>
<path d="M26.6667 7.99984C28.1394 7.99984 29.3333 6.80593 29.3333 5.33317C29.3333 3.86041 28.1394 2.6665 26.6667 2.6665C25.1939 2.6665 24 3.86041 24 5.33317C24 6.80593 25.1939 7.99984 26.6667 7.99984Z" stroke="#FBFBFB" stroke-width="1.25" stroke-linecap="round" stroke-linejoin="round"/>
<path d="M26.6667 29.3333C28.1394 29.3333 29.3333 28.1394 29.3333 26.6667C29.3333 25.1939 28.1394 24 26.6667 24C25.1939 24 24 25.1939 24 26.6667C24 28.1394 25.1939 29.3333 26.6667 29.3333Z" stroke="#FBFBFB" stroke-width="1.25" stroke-linecap="round" stroke-linejoin="round"/>
<path d="M5.33366 18.6666C6.80642 18.6666 8.00033 17.4727 8.00033 15.9999C8.00033 14.5272 6.80642 13.3333 5.33366 13.3333C3.8609 13.3333 2.66699 14.5272 2.66699 15.9999C2.66699 17.4727 3.8609 18.6666 5.33366 18.6666Z" stroke="#FBFBFB" stroke-width="1.25" stroke-linecap="round" stroke-linejoin="round"/>
<path d="M8 16H24" stroke="#FBFBFB" stroke-width="1.25" stroke-linecap="round" stroke-linejoin="round"/>
<path d="M24.0003 5.33325H18.667C16.0003 5.33325 14.667 6.66659 14.667 9.33325V22.6666C14.667 25.3333 16.0003 26.6666 18.667 26.6666H24.0003" stroke="#FBFBFB" stroke-width="1.25" stroke-linecap="round" stroke-linejoin="round"/>
</svg>
