<svg width="32" height="32" viewBox="0 0 32 32" fill="none" xmlns="http://www.w3.org/2000/svg">
<path d="M10.6665 16.2666H19.9998" stroke="#FBFBFB" stroke-width="1.25" stroke-miterlimit="10" stroke-linecap="round" stroke-linejoin="round"/>
<path d="M10.6665 21.5999H16.5065" stroke="#FBFBFB" stroke-width="1.25" stroke-miterlimit="10" stroke-linecap="round" stroke-linejoin="round"/>
<path d="M13.3332 7.99984H18.6665C21.3332 7.99984 21.3332 6.6665 21.3332 5.33317C21.3332 2.6665 19.9998 2.6665 18.6665 2.6665H13.3332C11.9998 2.6665 10.6665 2.6665 10.6665 5.33317C10.6665 7.99984 11.9998 7.99984 13.3332 7.99984Z" stroke="#FBFBFB" stroke-width="1.25" stroke-miterlimit="10" stroke-linecap="round" stroke-linejoin="round"/>
<path d="M21.3333 5.35986C25.7733 5.59986 28 7.23986 28 13.3332V21.3332C28 26.6665 26.6667 29.3332 20 29.3332H12C5.33333 29.3332 4 26.6665 4 21.3332V13.3332C4 7.2532 6.22667 5.59986 10.6667 5.35986" stroke="#FBFBFB" stroke-width="1.25" stroke-miterlimit="10" stroke-linecap="round" stroke-linejoin="round"/>
</svg>
