<svg width="21" height="20" viewBox="0 0 21 20" fill="none" xmlns="http://www.w3.org/2000/svg">
<path d="M15.1985 0.0185547H5.22124C2.46483 0.0185547 0.222424 2.26162 0.222424 5.01885V14.1493C0.222424 16.9065 2.46483 19.1496 5.22124 19.1496H15.1985C17.955 19.1496 20.1974 16.9065 20.1974 14.1493V5.01885C20.1974 2.26162 17.955 0.0185547 15.1985 0.0185547ZM1.98585 5.01885C1.98585 3.23456 3.43748 1.7825 5.22124 1.7825H15.1985C16.9823 1.7825 18.4339 3.23456 18.4339 5.01885V14.1493C18.4339 15.9336 16.9823 17.3857 15.1985 17.3857H5.22124C3.43748 17.3857 1.98585 15.9336 1.98585 14.1493V5.01885Z" fill="black"/>
<path d="M10.2099 14.2344C12.7731 14.2344 14.8596 12.1484 14.8596 9.58324C14.8596 7.01812 12.7742 4.93213 10.2099 4.93213C7.64551 4.93213 5.56012 7.01812 5.56012 9.58324C5.56012 12.1484 7.64551 14.2344 10.2099 14.2344ZM10.2099 6.6972C11.8016 6.6972 13.0962 7.99219 13.0962 9.58438C13.0962 11.1766 11.8016 12.4715 10.2099 12.4715C8.61816 12.4715 7.32355 11.1766 7.32355 9.58438C7.32355 7.99219 8.61816 6.6972 10.2099 6.6972Z" fill="black"/>
<path d="M15.2905 5.68312C15.9807 5.68312 16.5433 5.12151 16.5433 4.42994C16.5433 3.73838 15.9818 3.17676 15.2905 3.17676C14.5991 3.17676 14.0377 3.73838 14.0377 4.42994C14.0377 5.12151 14.5991 5.68312 15.2905 5.68312Z" fill="black"/>
</svg>
