<svg width="32" height="33" viewBox="0 0 32 33" fill="none" xmlns="http://www.w3.org/2000/svg">
<path d="M12.2134 14.8267C12.0801 14.8133 11.9201 14.8133 11.7734 14.8267C8.60008 14.72 6.08008 12.12 6.08008 8.92C6.08008 5.65333 8.72008 3 12.0001 3C15.2667 3 17.9201 5.65333 17.9201 8.92C17.9067 12.12 15.3867 14.72 12.2134 14.8267Z" stroke="#FBFBFB" stroke-width="1.25" stroke-linecap="round" stroke-linejoin="round"/>
<path d="M21.8799 5.6665C24.4665 5.6665 26.5465 7.75984 26.5465 10.3332C26.5465 12.8532 24.5465 14.9065 22.0532 14.9998C21.9465 14.9865 21.8265 14.9865 21.7065 14.9998" stroke="#FBFBFB" stroke-width="1.25" stroke-linecap="round" stroke-linejoin="round"/>
<path d="M5.54646 19.7467C2.3198 21.9067 2.3198 25.4267 5.54646 27.5734C9.21313 30.0267 15.2265 30.0267 18.8931 27.5734C22.1198 25.4134 22.1198 21.8934 18.8931 19.7467C15.2398 17.3067 9.22646 17.3067 5.54646 19.7467Z" stroke="#FBFBFB" stroke-width="1.25" stroke-linecap="round" stroke-linejoin="round"/>
<path d="M24.4536 26.9998C25.4136 26.7998 26.3203 26.4131 27.0669 25.8398C29.1469 24.2798 29.1469 21.7064 27.0669 20.1464C26.3336 19.5864 25.4403 19.2131 24.4936 18.9998" stroke="#FBFBFB" stroke-width="1.25" stroke-linecap="round" stroke-linejoin="round"/>
</svg>
