<svg width="32" height="33" viewBox="0 0 32 33" fill="none" xmlns="http://www.w3.org/2000/svg">
<path d="M12.0004 18.0005C11.1204 18.4405 10.387 19.0938 9.84035 19.9072C9.53368 20.3738 9.53368 20.9605 9.84035 21.4272C10.387 22.2405 11.1204 22.8938 12.0004 23.3338" stroke="#FBFBFB" stroke-width="1.25" stroke-linecap="round" stroke-linejoin="round"/>
<path d="M20.2798 18.0005C21.1598 18.4405 21.8931 19.0938 22.4398 19.9072C22.7465 20.3738 22.7465 20.9605 22.4398 21.4272C21.8931 22.2405 21.1598 22.8938 20.2798 23.3338" stroke="#FBFBFB" stroke-width="1.25" stroke-linecap="round" stroke-linejoin="round"/>
<path d="M12.0003 30.0002H20.0003C26.667 30.0002 29.3337 27.3335 29.3337 20.6668V12.6668C29.3337 6.00016 26.667 3.3335 20.0003 3.3335H12.0003C5.33366 3.3335 2.66699 6.00016 2.66699 12.6668V20.6668C2.66699 27.3335 5.33366 30.0002 12.0003 30.0002Z" stroke="#FBFBFB" stroke-width="1.25" stroke-linecap="round" stroke-linejoin="round"/>
<path d="M2.97314 11.3471L28.5998 11.3337" stroke="#FBFBFB" stroke-width="1.25" stroke-linecap="round" stroke-linejoin="round"/>
</svg>
