<svg width="32" height="33" viewBox="0 0 32 33" fill="none" xmlns="http://www.w3.org/2000/svg">
<path d="M29.0803 5.58667C27.027 10.7067 21.8804 17.6667 17.5737 21.12L14.947 23.2267C14.6137 23.4667 14.2804 23.68 13.907 23.8267C13.907 23.5867 13.8937 23.32 13.8537 23.0667C13.707 21.9467 13.2004 20.9067 12.307 20.0133C11.4004 19.1067 10.2937 18.5733 9.16035 18.4267C8.89368 18.4133 8.62702 18.3867 8.36035 18.4133C8.50702 18 8.73369 17.6133 9.01369 17.2933L11.0937 14.6667C14.5337 10.36 21.5203 5.18667 26.627 3.14667C27.4137 2.85333 28.1737 3.06667 28.6537 3.56C29.1603 4.05333 29.4003 4.81333 29.0803 5.58667Z" stroke="#FBFBFB" stroke-width="1.25" stroke-linecap="round" stroke-linejoin="round"/>
<path d="M13.9069 23.8266C13.9069 25.2932 13.3469 26.6932 12.2935 27.7599C11.4802 28.5732 10.3735 29.1332 9.05354 29.3066L5.77354 29.6666C3.98687 29.8666 2.45354 28.3466 2.66687 26.5332L3.02687 23.2532C3.34687 20.3332 5.78687 18.4666 8.37354 18.4132C8.6402 18.3999 8.9202 18.4132 9.17354 18.4266C10.3069 18.5732 11.4135 19.0932 12.3202 20.0132C13.2135 20.9066 13.7202 21.9466 13.8669 23.0666C13.8802 23.3199 13.9069 23.5732 13.9069 23.8266Z" stroke="#FBFBFB" stroke-width="1.25" stroke-linecap="round" stroke-linejoin="round"/>
<path d="M18.9864 19.6265C18.9864 16.1465 16.1597 13.3198 12.6797 13.3198" stroke="#FBFBFB" stroke-width="1.25" stroke-linecap="round" stroke-linejoin="round"/>
</svg>
