<svg width="677" height="556" viewBox="0 0 677 556" fill="none" xmlns="http://www.w3.org/2000/svg">
<path d="M426.97 178.951C478.604 230.882 510.795 292.504 521.118 350.135C531.441 407.769 519.892 461.36 484.126 497.331C448.36 533.302 395.075 544.918 337.771 534.536C280.469 524.153 219.198 491.777 167.564 439.847C115.93 387.916 83.739 326.294 73.416 268.663C63.0926 211.029 74.642 157.438 110.408 121.467C146.174 85.4956 199.459 73.8798 256.763 84.2625C314.065 94.6448 375.336 127.021 426.97 178.951Z" stroke="#FFCD2B"/>
<path d="M457.947 147.796C509.581 199.727 541.772 261.349 552.095 318.98C562.418 376.614 550.869 430.205 515.103 466.176C479.337 502.147 426.052 513.763 368.748 503.38C311.446 492.998 250.175 460.622 198.541 408.692C146.907 356.761 114.716 295.139 104.393 237.508C94.0697 179.874 105.619 126.283 141.385 90.3119C177.151 54.3405 230.436 42.7248 287.74 53.1075C345.042 63.4898 406.313 95.8655 457.947 147.796Z" stroke="#FFCD2B"/>
<path d="M488.924 116.641C540.558 168.572 572.749 230.194 583.072 287.826C593.395 345.459 581.846 399.05 546.08 435.021C510.314 470.993 457.029 482.608 399.725 472.226C342.423 461.843 281.152 429.468 229.518 377.537C177.884 325.606 145.693 263.984 135.37 206.353C125.047 148.719 136.596 95.1286 172.362 59.1572C208.128 23.1858 261.413 11.57 318.717 21.9527C376.019 32.335 437.29 64.7107 488.924 116.641Z" stroke="#FFCD2B"/>
</svg>
