<svg width="726" height="726" viewBox="0 0 726 726" fill="none" xmlns="http://www.w3.org/2000/svg">
<path d="M465.85 259.894C519.637 313.68 553.17 377.505 563.924 437.198C574.678 496.892 562.647 552.403 525.386 589.664C488.125 626.925 432.614 638.955 372.92 628.201C313.228 617.448 249.402 583.914 195.616 530.128C141.83 476.341 108.296 412.516 97.5426 352.824C86.7886 293.13 98.8193 237.619 136.08 200.358C173.341 163.097 228.852 151.066 288.546 161.82C348.239 172.574 412.064 206.107 465.85 259.894Z" stroke="#FBFBFB"/>
<path d="M498.117 227.627C551.904 281.413 585.437 345.238 596.191 404.931C606.945 464.625 594.914 520.136 557.653 557.397C520.392 594.658 464.881 606.688 405.187 595.934C345.494 585.181 281.669 551.647 227.883 497.861C174.096 444.074 140.563 380.249 129.81 320.557C119.055 260.862 131.086 205.352 168.347 168.091C205.608 130.83 261.119 118.799 320.813 129.553C380.506 140.307 444.331 173.84 498.117 227.627Z" stroke="#FBFBFB"/>
<path d="M530.384 195.36C584.17 249.147 617.704 312.972 628.457 372.664C639.211 432.359 627.181 487.869 589.92 525.13C552.659 562.391 497.148 574.422 437.454 563.668C377.761 552.914 313.936 519.381 260.15 465.594C206.363 411.808 172.83 347.983 162.076 288.29C151.322 228.596 163.353 173.085 200.614 135.824C237.875 98.5634 293.386 86.5327 353.08 97.2867C412.772 108.04 476.598 141.574 530.384 195.36Z" stroke="#FBFBFB"/>
</svg>
