<svg width="716" height="556" viewBox="0 0 716 556" fill="none" xmlns="http://www.w3.org/2000/svg">
<path d="M465.594 174.894C519.381 228.68 552.914 292.505 563.668 352.198C574.422 411.892 562.391 467.403 525.13 504.664C487.869 541.925 432.358 553.955 372.664 543.201C312.972 532.448 249.146 498.914 195.36 445.128C141.574 391.341 108.04 327.516 97.2866 267.824C86.5325 208.13 98.5633 152.619 135.824 115.358C173.085 78.0971 228.596 66.0663 288.29 76.8204C347.983 87.574 411.808 121.107 465.594 174.894Z" stroke="black"/>
<path d="M497.861 142.627C551.648 196.413 585.181 260.238 595.934 319.931C606.688 379.625 594.658 435.136 557.397 472.397C520.136 509.658 464.625 521.689 404.931 510.935C345.238 500.181 281.413 466.648 227.627 412.861C173.84 359.075 140.307 295.25 129.553 235.557C118.799 175.863 130.83 120.352 168.091 83.0912C205.352 45.8302 260.863 33.7995 320.557 44.5535C380.25 55.3072 444.075 88.8405 497.861 142.627Z" stroke="black"/>
<path d="M530.128 110.36C583.914 164.147 617.448 227.972 628.201 287.664C638.955 347.359 626.925 402.869 589.664 440.13C552.403 477.391 496.892 489.422 437.198 478.668C377.505 467.914 313.68 434.381 259.894 380.594C206.107 326.808 172.574 262.983 161.82 203.29C151.066 143.596 163.097 88.0852 200.358 50.8243C237.619 13.5634 293.13 1.53266 352.824 12.2867C412.516 23.0403 476.341 56.5736 530.128 110.36Z" stroke="black"/>
</svg>
