<svg width="978" height="543" viewBox="0 0 978 543" fill="none" xmlns="http://www.w3.org/2000/svg">
<path d="M860 0H118C112.023 0.00723128 106.222 1.76485 102 6C97.7783 10.2351 95.9934 16.0175 96 22V513C95.9947 516.408 96.5181 519.931 98 523H880C881.483 519.932 883.004 516.409 883 513V22C883.005 16.0183 880.222 10.2339 876 6C871.778 1.76609 865.977 0.00723159 860 0Z" fill="black"/>
<path d="M489 14C490.457 14 492 12.4525 492 11C492 9.54754 490.457 9 489 9C487.543 9 487 9.54754 487 11C487 12.4525 487.543 14 489 14Z" fill="#3A475B"/>
<path d="M219 526.258C138.949 526.258 130.337 525.678 10 526.258L2 529.212C14.7719 532.797 52.5761 543 66 543H913C920.723 543 936.055 539.459 950 536.106C964.525 532.613 977 529.212 977 529.212L969 526.258C477.521 525.721 306.262 526.258 219 526.258Z" fill="#BBC3CF"/>
<path d="M975 522.089H2.09051C1.71952 522.089 1.43321 521.95 1.0906 522.089C0.747986 522.228 0.352719 521.832 0.0906928 522.089C-0.171333 522.346 0.232202 522.732 0.0906928 523.067C-0.0508159 523.403 0.0901197 523.683 0.0906928 524.046V526.003C0.0901197 526.366 -0.0508159 526.645 0.0906928 526.981C0.232202 527.317 -0.171333 527.702 0.0906928 527.96C0.352719 528.217 0.747986 528.799 1.0906 528.938C1.43321 529.077 1.71952 528.938 2.09051 528.938H975C975.371 528.938 975.657 529.077 976 528.938C976.343 528.799 976.738 528.217 977 527.96C977.262 527.702 976.859 527.317 977 526.981C977.142 526.645 978.001 526.366 978 526.003V524.046C978.001 523.682 977.142 523.403 977 523.067C976.859 522.731 977.262 522.346 977 522.089C976.738 521.832 976.343 522.228 976 522.089C975.657 521.95 975.371 522.089 975 522.089Z" fill="black"/>
<path d="M559 522H419C426.489 525.245 433.84 525.996 442 526H535C543.159 525.993 551.512 525.242 559 522Z" fill="#8896AB"/>
</svg>
