<svg width="20" height="16" viewBox="0 0 20 16" fill="none" xmlns="http://www.w3.org/2000/svg">
<path d="M1.47049 7.24049C1.51412 7.21968 1.55777 7.1999 1.60031 7.18117C2.3399 6.85442 3.0893 6.54848 3.8376 6.24254C3.87797 6.24254 3.94558 6.19779 3.98376 6.18322C4.04157 6.15929 4.0994 6.13639 4.15721 6.11246C4.26847 6.06667 4.37974 6.02192 4.48992 5.97614C4.71245 5.8856 4.93387 5.79506 5.1564 5.70453L6.4883 5.16029C7.37623 4.79815 8.26528 4.43497 9.15321 4.07284C10.0411 3.7107 10.9302 3.34752 11.8181 2.98538C12.706 2.62325 13.595 2.26008 14.483 1.89794C15.3709 1.5358 16.26 1.17263 17.1479 0.810489C17.3453 0.72932 17.5591 0.608605 17.7708 0.573224C17.9486 0.543046 18.122 0.484774 18.3009 0.452515C18.6401 0.391118 19.0143 0.366146 19.3394 0.500386C19.4517 0.547214 19.5553 0.612772 19.6415 0.694981C20.0538 1.08417 19.996 1.72311 19.9088 2.27048C19.3012 6.0854 18.6936 9.90136 18.0849 13.7163C18.002 14.2397 17.8885 14.8141 17.4555 15.1451C17.089 15.425 16.5676 15.4562 16.1149 15.3376C15.6622 15.2179 15.2629 14.9671 14.8713 14.7205C13.2471 13.6944 11.6218 12.6684 9.99751 11.6423C9.61136 11.3988 9.18158 11.0804 9.18594 10.6381C9.18812 10.3717 9.355 10.1345 9.52517 9.92321C10.9367 8.16665 12.9733 6.95952 14.4884 5.28412C14.7022 5.0479 14.8702 4.62125 14.5768 4.48492C14.4023 4.40376 14.2015 4.51406 14.0423 4.61916C12.0395 5.94595 10.0379 7.27379 8.03511 8.60058C7.3817 9.03348 6.69667 9.47887 5.90909 9.58501C5.20441 9.68075 4.49538 9.49343 3.81361 9.30196C3.24202 9.1417 2.67149 8.97729 2.10317 8.80766C1.80101 8.71817 1.48903 8.62139 1.2556 8.41847C1.02216 8.21555 0.888005 7.87423 1.02872 7.60366C1.11708 7.43404 1.28834 7.32686 1.46833 7.23945L1.47049 7.24049Z" fill="black"/>
</svg>
