<svg width="19" height="19" viewBox="0 0 19 19" fill="none" xmlns="http://www.w3.org/2000/svg">
<path d="M12.1662 13.7446C8.51252 13.7446 5.53994 10.7702 5.53894 7.11537C5.53994 6.18892 6.29409 5.43555 7.21827 5.43555C7.31329 5.43555 7.4073 5.44355 7.49732 5.45956C7.69535 5.49257 7.8834 5.55961 8.05643 5.66066C8.08144 5.67566 8.09844 5.69968 8.10244 5.72769L8.48851 8.16188C8.49351 8.18989 8.48451 8.21891 8.46551 8.23992C8.25247 8.47604 7.98042 8.64612 7.67736 8.73116L7.53133 8.77218L7.58634 8.91325C8.08443 10.1819 9.09863 11.1954 10.3679 11.6956L10.5089 11.7516L10.5499 11.6056C10.6349 11.3024 10.805 11.0303 11.041 10.8172C11.058 10.8012 11.081 10.7932 11.104 10.7932C11.109 10.7932 11.114 10.7932 11.12 10.7942L13.5535 11.1804C13.5825 11.1854 13.6065 11.2014 13.6215 11.2264C13.7215 11.3995 13.7886 11.5886 13.8226 11.7867C13.8386 11.8747 13.8456 11.9677 13.8456 12.0648C13.8456 12.9902 13.0924 13.7436 12.1662 13.7446Z" fill="black"/>
<path d="M18.6455 8.76627C18.4485 6.53918 17.4283 4.47317 15.7729 2.94943C14.1076 1.41668 11.9472 0.572266 9.68775 0.572266C4.72878 0.572266 0.694006 4.60824 0.694006 9.56866C0.694006 11.2335 1.15309 12.8553 2.02225 14.268L0.0838776 18.5601L6.29009 17.8987C7.3693 18.3409 8.51152 18.5651 9.68674 18.5651C9.9958 18.5651 10.3129 18.549 10.6309 18.516C10.911 18.486 11.194 18.442 11.4721 18.386C15.6249 17.5466 18.6565 13.8598 18.6805 9.61669V9.56866C18.6805 9.29853 18.6685 9.02839 18.6445 8.76727L18.6455 8.76627ZM6.52914 16.0148L3.09547 16.381L4.12067 14.1089L3.91563 13.8337C3.90062 13.8137 3.88562 13.7937 3.86862 13.7707C2.97845 12.5411 2.50835 11.0884 2.50835 9.56966C2.50835 5.60973 5.72898 2.38816 9.68775 2.38816C13.3965 2.38816 16.5401 5.28257 16.8431 8.97737C16.8591 9.17547 16.8681 9.37457 16.8681 9.57066C16.8681 9.62669 16.8671 9.68172 16.8661 9.74075C16.7901 13.0534 14.4767 15.8667 11.24 16.5831C10.993 16.6381 10.74 16.6801 10.4879 16.7072C10.2259 16.7372 9.9568 16.7522 9.68975 16.7522C8.73856 16.7522 7.81439 16.5681 6.94122 16.2039C6.8442 16.1649 6.74917 16.1229 6.66016 16.0798L6.53014 16.0168L6.52914 16.0148Z" fill="black"/>
</svg>
