<svg width="40" height="40" viewBox="0 0 40 40" fill="none" xmlns="http://www.w3.org/2000/svg">
<path d="M20.0438 0.632812H19.9558C9.3026 0.632812 0.666504 9.27146 0.666504 19.9278V20.0158C0.666504 30.6721 9.3026 39.3108 19.9558 39.3108H20.0438C30.697 39.3108 39.3331 30.6721 39.3331 20.0158V19.9278C39.3331 9.27146 30.697 0.632812 20.0438 0.632812Z" fill="#D12923"/>
<path d="M24.6421 10.6328H14.6648C11.9084 10.6328 9.66602 12.8759 9.66602 15.6331V24.7636C9.66602 27.5208 11.9084 29.7639 14.6648 29.7639H24.6421C27.3986 29.7639 29.641 27.5208 29.641 24.7636V15.6331C29.641 12.8759 27.3986 10.6328 24.6421 10.6328ZM11.4294 15.6331C11.4294 13.8488 12.8811 12.3968 14.6648 12.3968H24.6421C26.4259 12.3968 27.8775 13.8488 27.8775 15.6331V24.7636C27.8775 26.5479 26.4259 27.9999 24.6421 27.9999H14.6648C12.8811 27.9999 11.4294 26.5479 11.4294 24.7636V15.6331Z" fill="black"/>
<path d="M19.6537 24.8486C22.2169 24.8486 24.3034 22.7626 24.3034 20.1975C24.3034 17.6324 22.218 15.5464 19.6537 15.5464C17.0893 15.5464 15.0039 17.6324 15.0039 20.1975C15.0039 22.7626 17.0893 24.8486 19.6537 24.8486ZM19.6537 17.3115C21.2454 17.3115 22.54 18.6065 22.54 20.1986C22.54 21.7908 21.2454 23.0858 19.6537 23.0858C18.0619 23.0858 16.7673 21.7908 16.7673 20.1986C16.7673 18.6065 18.0619 17.3115 19.6537 17.3115Z" fill="black"/>
<path d="M24.7343 16.2974C25.4245 16.2974 25.9871 15.7358 25.9871 15.0442C25.9871 14.3526 25.4256 13.791 24.7343 13.791C24.0429 13.791 23.4814 14.3526 23.4814 15.0442C23.4814 15.7358 24.0429 16.2974 24.7343 16.2974Z" fill="black"/>
</svg>
