<svg width="39" height="40" viewBox="0 0 39 40" fill="none" xmlns="http://www.w3.org/2000/svg">
<path d="M19.3773 0.632812H19.2893C8.6361 0.632812 0 9.27146 0 19.9278V20.0158C0 30.6721 8.6361 39.3108 19.2893 39.3108H19.3773C30.0305 39.3108 38.6666 30.6721 38.6666 20.0158V19.9278C38.6666 9.27146 30.0305 0.632812 19.3773 0.632812Z" fill="#D12923"/>
<path d="M12.375 14.8799C13.6867 14.8799 14.75 13.8166 14.75 12.5049C14.75 11.1932 13.6867 10.1299 12.375 10.1299C11.0633 10.1299 10 11.1932 10 12.5049C10 13.8166 11.0633 14.8799 12.375 14.8799Z" fill="black"/>
<path d="M16.5176 16.3824V29.1288H20.5171V22.8254C20.5171 21.1622 20.8333 19.5514 22.9175 19.5514C24.9729 19.5514 24.9984 21.453 24.9984 22.9304V29.1299H29V22.1398C29 18.7061 28.2529 16.0674 24.1972 16.0674C22.25 16.0674 20.9448 17.1248 20.411 18.1255H20.3569V16.3824H16.5176ZM10 16.3824H14.0059V29.1288H10V16.3824Z" fill="black"/>
</svg>
