<svg width="243" height="55" viewBox="0 0 243 55" fill="none" xmlns="http://www.w3.org/2000/svg">
<path fill-rule="evenodd" clip-rule="evenodd" d="M22.0219 1.98627L23.9963 5.50016C25.0898 7.45572 26.0618 9.19738 26.2137 9.41127C26.3656 9.68627 26.6086 9.59461 27.1553 9.07516C27.8539 8.4335 27.8843 8.37239 27.3983 7.85294C27.0642 7.51683 27.0034 7.24183 27.1857 7.0585C27.3679 6.90572 28.6133 6.72238 30.0106 6.60016C31.8634 6.47794 32.5317 6.5085 32.6228 6.7835C32.6836 6.99739 32.4709 8.18905 32.1064 9.38072C31.7419 10.6029 31.3167 11.6113 31.1344 11.6113C30.9522 11.6418 30.6181 11.3363 30.3447 10.9391C29.8283 10.2363 29.8283 10.2363 27.7932 11.3974L27.2464 10.6641C26.8819 10.1752 26.9731 10.4807 27.4287 11.4585C27.8539 12.2835 29.4334 15.1557 30.9522 17.8141C32.4709 20.4418 33.7163 22.6724 33.7163 22.7641C33.7163 22.8557 32.6836 22.9168 29.1601 22.9168L22.9636 19.4641C19.5616 17.6002 16.7367 15.8891 16.6759 15.7363C16.6456 15.5835 17.1923 15.1252 19.1363 14.0557L22.0219 15.5224C23.6014 16.3168 24.8772 16.8057 24.8772 16.6529C24.9076 16.5002 23.5711 14.0557 21.9308 11.2141C20.3209 8.40294 18.9237 6.11127 18.8326 6.11127C18.7414 6.11127 17.2227 8.67794 15.4609 11.8252C13.6992 15.0029 12.3627 17.6002 12.4842 17.6613C12.6361 17.6918 13.3651 17.3863 14.1244 16.9585C15.4609 16.1946 15.5217 16.1946 16.5544 16.7141C17.1619 17.0196 17.6479 17.3252 17.6479 17.4168C17.6479 17.5085 15.6128 18.7918 8.65694 22.9474L6.43957 22.9168C4.49557 22.9168 4.28294 22.8557 4.43482 22.3668C4.52594 22.0918 7.07744 17.4474 10.0846 12.0696C13.0917 6.69183 15.6432 2.16961 15.7039 2.04738C15.7951 1.92516 17.2227 1.86405 22.0219 1.98627ZM202.753 1.8335C203.756 1.8335 205.457 2.1085 206.55 2.44461C207.644 2.78072 209.071 3.39183 209.739 3.78905C210.408 4.18627 211.228 4.91961 211.592 5.4085C211.926 5.86683 212.382 6.75294 212.564 7.3335C212.777 7.91405 212.929 8.7085 212.929 9.07516C212.929 9.74739 212.807 9.77794 210.651 9.77794C208.403 9.77794 208.373 9.77794 208.221 8.92239C208.13 8.46405 207.704 7.73072 207.249 7.27238C206.763 6.81405 206.034 6.29461 205.548 6.14183C205.092 5.9585 203.938 5.80572 202.966 5.80572C201.933 5.80572 200.748 6.05016 200.019 6.38627C199.351 6.69183 198.561 7.21127 198.288 7.51683C197.984 7.82238 197.559 8.64739 197.316 9.31961C197.043 10.0224 196.86 11.6113 196.86 12.9863C196.86 14.3613 197.043 15.9502 197.316 16.6529C197.559 17.3252 197.984 18.1196 198.288 18.4557C198.561 18.7613 199.199 19.2196 199.716 19.4946C200.293 19.8002 201.417 19.9835 202.753 19.9835C204.302 20.0141 205.214 19.8307 206.064 19.4029C206.732 19.0668 207.522 18.3641 207.826 17.8752C208.13 17.3863 208.373 16.6529 208.373 16.2557C208.373 15.6141 208.281 15.5835 201.994 15.5835L202.146 12.0696L212.929 11.9168V23.5279H211.41C209.891 23.5279 209.891 23.5279 209.588 21.3891L208.433 22.1529C207.826 22.5807 206.611 23.1307 205.791 23.3752C204.94 23.6196 203.361 23.8335 202.206 23.8335C201.083 23.8335 199.382 23.5891 198.41 23.2835C197.468 22.9779 196.131 22.3363 195.463 21.8168C194.795 21.2668 193.884 20.1974 193.428 19.3724C192.942 18.4557 192.486 16.9279 192.274 15.4307C192.061 14.0252 192 12.2224 192.122 11.1529C192.243 10.1446 192.547 8.76961 192.79 8.09738C193.033 7.42516 193.61 6.38627 194.036 5.74461C194.491 5.1335 195.311 4.3085 195.888 3.91127C196.466 3.54461 197.832 2.90294 198.926 2.53627C200.111 2.13905 201.69 1.8335 202.753 1.8335ZM221.738 2.44461H238.444V6.11127H226.294V11.0002H236.925V14.6668H226.294V19.8613H238.748V23.5279H221.738V2.44461ZM83.0757 33.9168C84.2299 33.9168 85.9309 34.1307 86.7814 34.3752C87.6623 34.6196 88.8773 35.2918 89.5152 35.8113C90.1227 36.3613 90.7909 37.2779 91.034 37.7974C91.2466 38.3474 91.4288 39.0807 91.4288 39.4168C91.4288 39.9668 91.2162 40.0279 89.6671 40.0279C87.9965 40.0279 87.9053 39.9974 87.4801 39.0502C87.2067 38.4696 86.5688 37.8279 85.9613 37.5224C85.3842 37.2168 84.2299 36.9724 83.3794 36.9724C82.5289 36.9724 81.4051 37.2168 80.8279 37.5224C80.2508 37.7974 79.4914 38.4391 79.1573 38.8974C78.6106 39.6307 78.5194 40.2113 78.5194 42.7779C78.5194 45.3446 78.6106 45.9252 79.1573 46.6585C79.4914 47.1168 80.2508 47.7585 80.8279 48.0335C81.4051 48.3391 82.4378 48.5835 83.1365 48.5835C83.8654 48.5835 84.8982 48.4002 85.4146 48.1863C85.9613 47.9418 86.7207 47.3613 87.1156 46.8724C87.4801 46.3835 87.8142 45.7418 87.7838 45.4668C87.7838 44.9779 87.4497 44.9168 82.6201 44.9168V42.1668H91.4288V51.3335H90.2746C89.2418 51.3335 89.1203 51.2724 88.9381 50.3557C88.7254 49.4085 88.6647 49.3779 88.1787 49.8363C87.8749 50.1113 87.0548 50.6307 86.3258 50.9974C85.3842 51.4863 84.4729 51.639 82.7719 51.639C80.9191 51.639 80.1901 51.4863 78.7624 50.8141C77.8208 50.3252 76.7273 49.5613 76.3628 49.0418C75.9679 48.5224 75.4212 47.5752 75.1478 46.9029C74.7833 46.0474 74.6314 44.7946 74.6011 42.7779C74.5707 40.2113 74.6618 39.6613 75.4212 38.1029C75.9072 37.064 76.6362 36.0863 77.2133 35.6891C77.7601 35.3224 78.8232 34.7724 79.5826 34.4668C80.4027 34.1613 81.8303 33.9474 83.0757 33.9168ZM161.595 33.9168C162.719 33.9168 164.238 34.1307 165.088 34.4363C165.939 34.7418 167.063 35.4446 167.67 36.0557C168.308 36.7279 168.885 37.7363 169.098 38.5918C169.31 39.3863 169.493 40.1502 169.493 40.3335C169.493 40.5168 168.642 40.639 167.518 40.639C165.605 40.639 165.544 40.6085 165.544 39.8752C165.544 39.4474 165.179 38.6835 164.693 38.1641C163.995 37.3085 163.63 37.1863 162.051 37.0641C160.593 36.9724 160.046 37.0641 159.226 37.5529C158.709 37.9196 158.011 38.6529 157.737 39.2029C157.403 39.8752 157.221 40.9446 157.221 42.6252C157.221 44.2752 157.403 45.4363 157.737 46.2307C158.011 46.8418 158.558 47.5752 158.922 47.8196C159.317 48.0641 160.107 48.3696 160.684 48.4613C161.261 48.5835 162.233 48.5835 162.81 48.4918C163.387 48.3696 164.238 47.9113 164.724 47.4529C165.179 46.9946 165.635 46.2307 165.696 45.7724C165.848 44.9474 165.908 44.9168 167.67 44.9168C168.915 44.9168 169.493 45.0391 169.493 45.2835C169.493 45.4974 169.341 46.1696 169.189 46.7502C169.007 47.3307 168.551 48.3085 168.126 48.889C167.731 49.4696 166.88 50.2029 166.242 50.5391C165.605 50.8446 164.845 51.2113 164.541 51.3641C164.268 51.5168 162.992 51.639 161.747 51.639C160.107 51.639 159.074 51.4557 158.011 50.9974C157.221 50.6613 156.188 50.0196 155.733 49.5613C155.247 49.1029 154.548 48.1863 154.214 47.514C153.637 46.4752 153.546 45.8029 153.546 42.7779C153.546 39.4474 153.606 39.1724 154.457 37.6446C154.973 36.6974 155.824 35.7196 156.431 35.3529C157.008 34.9863 157.98 34.5279 158.558 34.3141C159.135 34.1002 160.502 33.9474 161.595 33.9168ZM40.7633 2.3835L46.7168 2.50572C52.1843 2.59738 52.8222 2.6585 54.2194 3.30016C55.0396 3.69738 56.2546 4.52238 56.8924 5.1335C57.4999 5.74461 58.3201 6.93627 58.6846 7.79183C59.2617 9.07516 59.3528 9.90016 59.3832 12.6807C59.3832 15.2474 59.2313 16.4391 58.8061 17.7224C58.4112 18.8224 57.7429 19.8918 56.8317 20.8085C56.0116 21.6335 54.7966 22.4279 53.9157 22.7641C52.6703 23.2224 51.3338 23.3446 40.7026 23.5279L40.7633 2.3835ZM45.2588 20.0141C50.2403 19.6779 51.1819 19.4641 52.1843 18.8835C53.1259 18.3641 53.7031 17.7835 54.1587 16.8057C54.6143 15.7668 54.7966 14.7891 54.7966 12.9863C54.7966 11.0002 54.6447 10.2363 54.0676 9.01405C53.4904 7.82238 53.0044 7.30294 51.9413 6.7835C50.8478 6.2335 50.0884 6.08072 47.9318 6.08072L45.2588 6.11127V20.0141ZM65.0633 2.44461L70.0448 2.41405L72.7786 10.3891C74.2669 14.7585 75.5427 18.3335 75.5731 18.3335C75.6034 18.3335 76.8184 14.7585 80.8279 2.44461H85.688L85.3538 3.26961C85.1716 3.72794 83.5617 8.09738 81.8303 12.9863C80.0686 17.8446 78.5194 22.2141 78.3676 22.6724C78.0942 23.4974 78.0638 23.5279 72.7786 23.5279L69.3158 13.9641C67.4022 8.7085 65.6708 3.97238 65.4582 3.42238L65.0633 2.44461ZM97.2912 2.41405L103.032 2.59738L106.95 12.8335C109.107 18.4557 110.869 23.1613 110.869 23.3141C110.869 23.4363 109.836 23.5279 106.191 23.5585L104.612 19.4029L95.5598 19.2196L93.9803 23.3752L91.6414 23.4668C90.3657 23.4974 89.3026 23.4668 89.2722 23.3752C89.2418 23.2835 90.8213 19.0363 92.7957 13.9641C94.7701 8.89183 96.5622 4.21683 96.8356 3.57516L97.2912 2.41405ZM97.8683 12.2835C97.2608 13.9335 96.8356 15.3391 96.8963 15.4307C96.9874 15.5224 98.4454 15.5529 100.116 15.4918L103.184 15.4307C101.027 8.67794 100.238 6.72238 100.055 6.72238C99.8731 6.72238 99.5693 7.30294 99.3567 8.00572C99.1441 8.73905 98.4758 10.6641 97.8683 12.2835ZM117.855 2.44461H122.108L131.858 15.7363L131.828 2.44461H136.384V23.5279L131.979 23.4974L128.79 19.1891C127.059 16.8363 124.811 13.7807 122.108 9.93072V23.5279H117.855V2.44461ZM143.674 2.44461H161.899V6.11127H155.216V23.5279H150.66L150.508 6.26405L143.674 6.11127V2.44461ZM172.621 2.41405L178.362 2.59738L182.28 12.8335C184.437 18.4557 186.199 23.1613 186.199 23.2835C186.199 23.4057 185.166 23.5279 181.491 23.5279L179.942 19.4029L170.859 19.2196L169.31 23.3752L166.971 23.4363C165.696 23.4974 164.633 23.4363 164.572 23.3752C164.541 23.2835 166.151 19.0363 168.126 13.9641C170.07 8.89183 171.892 4.21683 172.166 3.57516L172.621 2.41405ZM173.198 12.2835C172.591 13.9335 172.135 15.3391 172.226 15.4307C172.317 15.4918 173.775 15.5529 175.446 15.4918L178.484 15.4307C176.327 8.67794 175.568 6.72238 175.385 6.72238C175.203 6.72238 174.869 7.30294 174.687 8.00572C174.474 8.73905 173.806 10.6641 173.198 12.2835ZM59.3832 34.2224L62.2384 41.7696C63.8179 45.9252 65.3063 49.7752 65.9138 51.3335H61.8132L60.7501 47.9724H53.1563L52.0324 51.1807L50.1492 51.2418C49.1468 51.3029 48.2963 51.2418 48.3267 51.1196C48.3267 51.0279 49.6024 47.5446 51.1819 43.4196C52.7614 39.2641 54.1891 35.5057 54.3409 35.0474C54.6751 34.2224 54.7358 34.2224 59.3832 34.2224ZM55.4344 41.6474C54.8573 43.2974 54.3713 44.7029 54.3713 44.764C54.3713 44.8557 55.5256 44.9168 56.9532 44.9168C59.2921 44.9168 59.5351 44.8557 59.3528 44.3668C59.2617 44.0918 58.7453 42.5641 58.2289 41.0363C57.6822 39.5085 57.1962 38.1335 57.1051 38.0113C57.0139 37.8891 56.8317 37.9807 56.7102 38.2252C56.6191 38.4391 56.0419 39.9974 55.4344 41.6474ZM102.668 34.2224H116.336V37.2779H106.616V40.9446H115.121V44.0002H106.616V48.2779H116.64V51.3335H102.668V34.2224ZM127.575 34.2224H131.22L139.118 45.0696V34.2224H142.763V51.3335H139.269L131.372 40.6696L131.22 51.3335H127.575V34.2224ZM178.028 34.1918L182.372 34.3752L184.376 37.6446C185.47 39.4474 186.411 40.9446 186.503 40.9446C186.594 40.9446 187.535 39.4779 188.629 37.6752C189.722 35.9029 190.755 34.3752 190.907 34.3141C191.089 34.2529 192 34.2224 194.734 34.3752L188.325 44.3057V51.3335H184.68L184.65 44.6113L182.645 41.4641C181.551 39.7529 180.063 37.4002 179.334 36.2696L178.028 34.1918Z" fill="#FBFBFB"/>
</svg>
