<svg width="39" height="40" viewBox="0 0 39 40" fill="none" xmlns="http://www.w3.org/2000/svg">
<path d="M19.7103 0.632812H19.6223C8.96909 0.632812 0.333008 9.27146 0.333008 19.9278V20.0158C0.333008 30.6721 8.96909 39.3108 19.6223 39.3108H19.7103C30.3635 39.3108 38.9996 30.6721 38.9996 20.0158V19.9278C38.9996 9.27146 30.3635 0.632812 19.7103 0.632812Z" fill="#D12923"/>
<path d="M8.49917 19.4705C8.54281 19.4497 8.58646 19.4299 8.629 19.4112C9.36858 19.0844 10.118 18.7785 10.8663 18.4725C10.9067 18.4725 10.9743 18.4278 11.0124 18.4132C11.0703 18.3893 11.1281 18.3664 11.1859 18.3424C11.2972 18.2967 11.4084 18.2519 11.5186 18.2061C11.7411 18.1156 11.9626 18.025 12.1851 17.9345L13.517 17.3903C14.4049 17.0281 15.294 16.665 16.1819 16.3028C17.0698 15.9407 17.9588 15.5775 18.8468 15.2154C19.7347 14.8532 20.6237 14.4901 21.5117 14.1279C22.3996 13.7658 23.2886 13.4026 24.1766 13.0405C24.374 12.9593 24.5878 12.8386 24.7994 12.8032C24.9772 12.773 25.1507 12.7148 25.3296 12.6825C25.6688 12.6211 26.043 12.5961 26.368 12.7304C26.4804 12.7772 26.584 12.8428 26.6702 12.925C27.0825 13.3142 27.0247 13.9531 26.9374 14.5005C26.3299 18.3154 25.7223 22.1313 25.1136 25.9463C25.0307 26.4697 24.9172 27.0441 24.4842 27.375C24.1177 27.655 23.5962 27.6862 23.1435 27.5675C22.6909 27.4479 22.2916 27.1971 21.9 26.9505C20.2758 25.9244 18.6504 24.8984 17.0262 23.8723C16.64 23.6288 16.2103 23.3104 16.2146 22.8681C16.2168 22.6017 16.3837 22.3644 16.5539 22.1532C17.9654 20.3966 20.002 19.1895 21.5171 17.5141C21.7309 17.2779 21.8989 16.8512 21.6055 16.7149C21.431 16.6337 21.2302 16.744 21.071 16.8491C19.0682 18.1759 17.0666 19.5038 15.0638 20.8306C14.4104 21.2635 13.7254 21.7088 12.9378 21.815C12.2331 21.9107 11.5241 21.7234 10.8423 21.5319C10.2707 21.3717 9.70018 21.2073 9.13186 21.0376C8.8297 20.9482 8.51772 20.8514 8.28428 20.6485C8.05085 20.4455 7.91669 20.1042 8.05741 19.8336C8.14577 19.664 8.31703 19.5568 8.49702 19.4694L8.49917 19.4705Z" fill="black"/>
</svg>
